<svg xmlns="http://www.w3.org/2000/svg" xmlns:xlink="http://www.w3.org/1999/xlink" version="1.1" xml:space="preserve" viewBox="74.38 120.03 351.43 261.79">
<desc>Created with Fabric.js 3.6.3</desc>
<defs>
</defs>
<g transform="matrix(1.5267707692954429 0 0 1.5267707692954429 253 208.96876708071295)">
<g style="">
		<g transform="matrix(1 0 0 1 -1.5 0.8999999999999986)">
<circle style="stroke: none; stroke-width: 1; stroke-dasharray: none; stroke-linecap: butt; stroke-dashoffset: 0; stroke-linejoin: miter; stroke-miterlimit: 4; fill: rgb(26,109,175); fill-rule: nonzero; opacity: 1;" cx="0" cy="0" r="55.6"/>
</g>
		<g transform="matrix(1 0 0 1 -12.200000000000003 48.05)">
<line style="stroke: rgb(253,205,18); stroke-width: 2; stroke-dasharray: none; stroke-linecap: round; stroke-dashoffset: 0; stroke-linejoin: round; stroke-miterlimit: 10; fill: none; fill-rule: nonzero; opacity: 1;" x1="-10.700000000000003" y1="9.550000000000004" x2="10.700000000000003" y2="-9.550000000000004"/>
</g>
		<g transform="matrix(1 0 0 1 3.899999999999988 -48.650000000000006)">
<line style="stroke: rgb(253,205,18); stroke-width: 2; stroke-dasharray: none; stroke-linecap: round; stroke-dashoffset: 0; stroke-linejoin: round; stroke-miterlimit: 10; fill: none; fill-rule: nonzero; opacity: 1;" x1="-11.2" y1="8.95" x2="11.2" y2="-8.95"/>
</g>
		<g transform="matrix(1 0 0 1 46.45 3.949999999999992)">
<line style="stroke: rgb(253,205,18); stroke-width: 2; stroke-dasharray: none; stroke-linecap: round; stroke-dashoffset: 0; stroke-linejoin: round; stroke-miterlimit: 10; fill: none; fill-rule: nonzero; opacity: 1;" x1="-11.25" y1="8.95" x2="11.25" y2="-8.95"/>
</g>
		<g transform="matrix(1 0 0 1 45.55 -13.25)">
<line style="stroke: rgb(244,94,172); stroke-width: 2; stroke-dasharray: none; stroke-linecap: round; stroke-dashoffset: 0; stroke-linejoin: round; stroke-miterlimit: 10; fill: none; fill-rule: nonzero; opacity: 1;" x1="-9.950000000000003" y1="8.850000000000001" x2="9.950000000000003" y2="-8.850000000000001"/>
</g>
		<g transform="matrix(1 0 0 1 -37.45 43.849999999999994)">
<line style="stroke: rgb(26,109,175); stroke-width: 2; stroke-dasharray: none; stroke-linecap: round; stroke-dashoffset: 0; stroke-linejoin: round; stroke-miterlimit: 10; fill: none; fill-rule: nonzero; opacity: 1;" x1="-9.95" y1="8.850000000000001" x2="9.95" y2="-8.850000000000001"/>
</g>
		<g transform="matrix(1 0 0 1 -47.400000000000006 11.800000000000008)">
<line style="stroke: rgb(244,94,172); stroke-width: 2; stroke-dasharray: none; stroke-linecap: round; stroke-dashoffset: 0; stroke-linejoin: round; stroke-miterlimit: 10; fill: none; fill-rule: nonzero; opacity: 1;" x1="-10.3" y1="8.500000000000004" x2="10.3" y2="-8.500000000000004"/>
</g>
		<g transform="matrix(1 0 0 1 27.45000000000001 -44.150000000000006)">
<line style="stroke: rgb(244,94,172); stroke-width: 2; stroke-dasharray: none; stroke-linecap: round; stroke-dashoffset: 0; stroke-linejoin: round; stroke-miterlimit: 10; fill: none; fill-rule: nonzero; opacity: 1;" x1="-10.449999999999996" y1="8.25" x2="10.449999999999996" y2="-8.25"/>
</g>
		<g transform="matrix(1 0 0 1 -44 -33.300000000000004)">
<line style="stroke: rgb(244,94,172); stroke-width: 2; stroke-dasharray: none; stroke-linecap: round; stroke-dashoffset: 0; stroke-linejoin: round; stroke-miterlimit: 10; fill: none; fill-rule: nonzero; opacity: 1;" x1="-10.2" y1="8.6" x2="10.2" y2="-8.6"/>
</g>
		<g transform="matrix(1 0 0 1 -34.7 14.550000000000008)">
<line style="stroke: rgb(37,171,190); stroke-width: 2; stroke-dasharray: none; stroke-linecap: round; stroke-dashoffset: 0; stroke-linejoin: round; stroke-miterlimit: 10; fill: none; fill-rule: nonzero; opacity: 1;" x1="-20.6" y1="18.05" x2="20.6" y2="-18.05"/>
</g>
		<g transform="matrix(1 0 0 1 36.74999999999998 31.049999999999997)">
<line style="stroke: rgb(37,171,190); stroke-width: 2; stroke-dasharray: none; stroke-linecap: round; stroke-dashoffset: 0; stroke-linejoin: round; stroke-miterlimit: 10; fill: none; fill-rule: nonzero; opacity: 1;" x1="-20.65" y1="18.050000000000004" x2="20.65" y2="-18.050000000000004"/>
</g>
		<g transform="matrix(1 0 0 1 26.85000000000001 33.749999999999986)">
<path style="stroke: none; stroke-width: 1; stroke-dasharray: none; stroke-linecap: butt; stroke-dashoffset: 0; stroke-linejoin: miter; stroke-miterlimit: 4; fill: rgb(37,171,190); fill-rule: nonzero; opacity: 1;" transform=" translate(-85.55000000000001, -92.35)" d="M 111.9 69.7 L 59.2 115 C 85.5 114.1 107.2 94.9 111.9 69.7 z" stroke-linecap="round"/>
</g>
		<g transform="matrix(1 0 0 1 21.450000000000003 27.9)">
<path style="stroke: none; stroke-width: 1; stroke-dasharray: none; stroke-linecap: butt; stroke-dashoffset: 0; stroke-linejoin: miter; stroke-miterlimit: 4; fill: rgb(26,109,175); fill-rule: nonzero; opacity: 1;" transform=" translate(-80.15, -86.5)" d="M 112.8 57.8 l -65.3 56.5 c 3.2 0.6 6.4 0.9 9.7 0.9 c 0.7 0 1.3 0 2 -0.1 l 52.6 -45.3 c 0.6 -3.3 1 -6.8 1 -10.3 C 112.8 58.9 112.8 58.3 112.8 57.8 z" stroke-linecap="round"/>
</g>
		<g transform="matrix(1 0 0 1 17.10000000000001 21.70000000000001)">
<path style="stroke: none; stroke-width: 1; stroke-dasharray: none; stroke-linecap: butt; stroke-dashoffset: 0; stroke-linejoin: miter; stroke-miterlimit: 4; fill: rgb(253,205,18); fill-rule: nonzero; opacity: 1;" transform=" translate(-75.80000000000001, -80.30000000000001)" d="M 38.9 112 c 3 1 6.1 1.8 9.3 2.4 l 64.5 -56.5 c -0.1 -4 -0.7 -7.9 -1.6 -11.7 L 38.9 112 z" stroke-linecap="round"/>
</g>
		<g transform="matrix(1 0 0 1 8.849999999999994 12.999999999999993)">
<path style="stroke: none; stroke-width: 1; stroke-dasharray: none; stroke-linecap: butt; stroke-dashoffset: 0; stroke-linejoin: miter; stroke-miterlimit: 4; fill: rgb(244,94,172); fill-rule: nonzero; opacity: 1;" transform=" translate(-67.55, -71.6)" d="M 105.1 31.2 L 24 104.1 c 4.5 3.4 9.5 6 14.9 7.9 l 72.2 -65.9 C 109.9 40.8 107.8 35.8 105.1 31.2 z" stroke-linecap="round"/>
</g>
		<g transform="matrix(1 0 0 1 -27.000000000000004 -32.150000000000006)">
<path style="stroke: none; stroke-width: 1; stroke-dasharray: none; stroke-linecap: butt; stroke-dashoffset: 0; stroke-linejoin: miter; stroke-miterlimit: 4; fill: rgb(244,94,172); fill-rule: nonzero; opacity: 1;" transform=" translate(-31.7, -26.45)" d="M 57.2 3.9 C 30.1 3.9 7.5 23.3 2.6 49 L 60.8 4 C 59.6 3.9 58.4 3.9 57.2 3.9 z" stroke-linecap="round"/>
</g>
		<g transform="matrix(1 0 0 1 -0.45000000000000284 4)">
<path style="stroke: none; stroke-width: 1; stroke-dasharray: none; stroke-linecap: butt; stroke-dashoffset: 0; stroke-linejoin: miter; stroke-miterlimit: 4; fill: rgb(26,109,175); fill-rule: nonzero; opacity: 1;" transform=" translate(-58.25, -62.6)" d="M 97.2 20.9 l -85.9 70 c 3.5 5.2 7.9 9.7 13 13.4 l 80.9 -73 C 102.9 27.5 100.2 24 97.2 20.9 z" stroke-linecap="round"/>
</g>
		<g transform="matrix(1 0 0 1 -15.949999999999996 -23.3)">
<path style="stroke: none; stroke-width: 1; stroke-dasharray: none; stroke-linecap: butt; stroke-dashoffset: 0; stroke-linejoin: miter; stroke-miterlimit: 4; fill: rgb(26,109,175); fill-rule: nonzero; opacity: 1;" transform=" translate(-42.75000000000001, -35.3)" d="M 68.9 5.1 l -67.1 52 l -0.1 0.1 c 0 0.8 -0.1 1.5 -0.1 2.3 c 0 2 0.1 4.1 0.3 6 l 82 -54.8 C 79.3 8.1 74.2 6.2 68.9 5.1 z" stroke-linecap="round"/>
</g>
		<g transform="matrix(1 0 0 1 -7.350000000000001 -6.000000000000007)">
<path style="stroke: none; stroke-width: 1; stroke-dasharray: none; stroke-linecap: butt; stroke-dashoffset: 0; stroke-linejoin: miter; stroke-miterlimit: 4; fill: rgb(37,171,190); fill-rule: nonzero; opacity: 1;" transform=" translate(-51.35, -52.599999999999994)" d="M 89.8 14.4 L 5.5 80 c 1.5 3.8 3.5 7.5 5.8 10.8 l 85.9 -70 C 94.9 18.5 92.5 16.4 89.8 14.4 z" stroke-linecap="round"/>
</g>
		<g transform="matrix(1 0 0 1 -12.850000000000001 -13.250000000000007)">
<path style="stroke: none; stroke-width: 1; stroke-dasharray: none; stroke-linecap: butt; stroke-dashoffset: 0; stroke-linejoin: miter; stroke-miterlimit: 4; fill: rgb(244,94,172); fill-rule: nonzero; opacity: 1;" transform=" translate(-45.85, -45.349999999999994)" d="M 83.9 10.7 l -82 54.8 c 0.5 5.1 1.8 9.9 3.6 14.5 l 84.3 -65.6 C 87.9 13.1 86 11.8 83.9 10.7 z" stroke-linecap="round"/>
</g>
		<g transform="matrix(1 0 0 1 -22.75 -27.150000000000002)">
<path style="stroke: none; stroke-width: 1; stroke-dasharray: none; stroke-linecap: butt; stroke-dashoffset: 0; stroke-linejoin: miter; stroke-miterlimit: 4; fill: rgb(253,205,18); fill-rule: nonzero; opacity: 1;" transform=" translate(-35.95, -31.45)" d="M 60 3.9 l -55.3 37 c -2 5.7 -3.1 11.7 -3.2 18.1 L 70.4 5.4 C 67 4.6 63.6 4.1 60 3.9 z" stroke-linecap="round"/>
</g>
</g>
</g>
<g transform="matrix(1 0 0 1 250.9999999476559 378.64653141009717)" style=""><path fill="#3E606F" opacity="1" d="M-133.26 3.04L-130.54-3.25L-129.69-3.25L-126.98 3.04L-127.74 3.04L-128.64 0.92L-131.63 0.92L-132.51 3.04L-133.26 3.04ZM-130.06-2.51L-130.20-2.51L-131.38 0.32L-128.89 0.32L-130.06-2.51Z"/><path fill="#3E606F" opacity="1" d="M-123.88 3.04L-123.88-3.25L-123.15-3.25L-123.15 3.04L-123.88 3.04Z"/><path fill="#3E606F" opacity="1" d=""/><path fill="#3E606F" opacity="1" d="M-109.29-2.74L-109.29-2.74L-109.59-2.16Q-110.48-2.76-111.45-2.76L-111.45-2.76Q-112.61-2.76-113.36-2.01Q-114.10-1.27-114.10-0.11L-114.10-0.11Q-114.10 1.11-113.36 1.81Q-112.62 2.50-111.46 2.50L-111.46 2.50Q-110.85 2.50-110.42 2.38Q-109.99 2.26-109.50 1.94L-109.50 1.94L-109.28 2.58Q-110.19 3.17-111.57 3.17L-111.57 3.17Q-112.21 3.17-112.78 2.97Q-113.36 2.77-113.82 2.38Q-114.29 1.99-114.56 1.34Q-114.83 0.70-114.83-0.11L-114.83-0.11Q-114.83-1.55-113.85-2.46Q-112.86-3.38-111.45-3.38L-111.45-3.38Q-110.18-3.38-109.29-2.74Z"/><path fill="#3E606F" opacity="1" d="M-104.93-2.03Q-105.70-1.31-105.70-0.11Q-105.70 1.10-104.93 1.82Q-104.16 2.55-103.06 2.55Q-101.96 2.55-101.19 1.82Q-100.42 1.10-100.42-0.11Q-100.42-1.31-101.19-2.03Q-101.96-2.76-103.06-2.76Q-104.16-2.76-104.93-2.03ZM-99.69-0.11L-99.69-0.11Q-99.69 1.34-100.65 2.25Q-101.62 3.17-103.06 3.17L-103.06 3.17Q-104.51 3.17-105.47 2.26Q-106.43 1.35-106.43-0.11L-106.43-0.11Q-106.43-1.55-105.47-2.46Q-104.50-3.38-103.06-3.38L-103.06-3.38Q-101.61-3.38-100.65-2.47Q-99.69-1.56-99.69-0.11Z"/><path fill="#3E606F" opacity="1" d="M-96.45 3.04L-96.45-3.25L-95.44-3.25L-93.40-0.23L-91.35-3.25L-90.35-3.25L-90.35 3.04L-91.07 3.04L-91.07-0.53L-91.05-2.46L-91.14-2.46L-93.29 0.70L-93.56 0.70L-95.68-2.46L-95.75-2.46L-95.74-0.53L-95.74 3.04L-96.45 3.04Z"/><path fill="#3E606F" opacity="1" d="M-86.87 3.04L-86.87-3.25L-84.74-3.25Q-83.66-3.25-82.98-2.73Q-82.29-2.22-82.29-1.31L-82.29-1.31Q-82.29-0.39-82.97 0.14Q-83.64 0.66-84.74 0.66L-84.74 0.66L-86.14 0.66L-86.14 3.04L-86.87 3.04ZM-84.88-2.63L-86.14-2.63L-86.14 0.03L-84.88 0.03Q-83.02 0.03-83.02-1.31L-83.02-1.31Q-83.02-2.63-84.88-2.63L-84.88-2.63Z"/><path fill="#3E606F" opacity="1" d="M-80.11 3.04L-77.39-3.25L-76.54-3.25L-73.83 3.04L-74.59 3.04L-75.49 0.92L-78.49 0.92L-79.37 3.04L-80.11 3.04ZM-76.92-2.51L-77.05-2.51L-78.23 0.32L-75.75 0.32L-76.92-2.51Z"/><path fill="#3E606F" opacity="1" d="M-70.73 3.04L-70.73-3.25L-69.96-3.25L-65.60 2.18L-65.64 0.25L-65.64-3.25L-64.95-3.25L-64.95 3.04L-65.76 3.04L-70.11-2.43L-70.05-0.20L-70.05 3.04L-70.73 3.04Z"/><path fill="#3E606F" opacity="1" d="M-61.47 3.04L-61.47-3.25L-60.74-3.25L-60.74 3.04L-61.47 3.04Z"/><path fill="#3E606F" opacity="1" d="M-56.01-2.03Q-56.78-1.31-56.78-0.11Q-56.78 1.10-56.01 1.82Q-55.24 2.55-54.13 2.55Q-53.03 2.55-52.26 1.82Q-51.49 1.10-51.49-0.11Q-51.49-1.31-52.26-2.03Q-53.03-2.76-54.13-2.76Q-55.24-2.76-56.01-2.03ZM-50.77-0.11L-50.77-0.11Q-50.77 1.34-51.73 2.25Q-52.69 3.17-54.13 3.17L-54.13 3.17Q-55.59 3.17-56.54 2.26Q-57.50 1.35-57.50-0.11L-57.50-0.11Q-57.50-1.55-56.54-2.46Q-55.58-3.38-54.13-3.38L-54.13-3.38Q-52.68-3.38-51.72-2.47Q-50.77-1.56-50.77-0.11Z"/><path fill="#3E606F" opacity="1" d="M-47.52 3.04L-47.52-3.25L-46.75-3.25L-42.39 2.18L-42.43 0.25L-42.43-3.25L-41.74-3.25L-41.74 3.04L-42.55 3.04L-46.90-2.43L-46.84-0.20L-46.84 3.04L-47.52 3.04Z"/><path fill="#3E606F" opacity="1" d=""/><path fill="#3E606F" opacity="1" d="M-33.18 3.04L-33.18-3.25L-29.24-3.25L-29.24-2.63L-32.45-2.63L-32.45-0.51L-29.56-0.51L-29.56 0.10L-32.45 0.10L-32.45 3.04L-33.18 3.04Z"/><path fill="#3E606F" opacity="1" d="M-24.99-2.03Q-25.76-1.31-25.76-0.11Q-25.76 1.10-24.99 1.82Q-24.22 2.55-23.11 2.55Q-22.01 2.55-21.24 1.82Q-20.47 1.10-20.47-0.11Q-20.47-1.31-21.24-2.03Q-22.01-2.76-23.11-2.76Q-24.22-2.76-24.99-2.03ZM-19.74-0.11L-19.74-0.11Q-19.74 1.34-20.71 2.25Q-21.67 3.17-23.11 3.17L-23.11 3.17Q-24.56 3.17-25.52 2.26Q-26.48 1.35-26.48-0.11L-26.48-0.11Q-26.48-1.55-25.52-2.46Q-24.56-3.38-23.11-3.38L-23.11-3.38Q-21.66-3.38-20.70-2.47Q-19.74-1.56-19.74-0.11Z"/><path fill="#3E606F" opacity="1" d="M-16.50 3.04L-16.50-3.25L-14.03-3.25Q-13.09-3.25-12.49-2.78Q-11.90-2.31-11.90-1.51L-11.90-1.51Q-11.90-0.96-12.28-0.50Q-12.66-0.05-13.36 0.14L-13.36 0.14L-11.45 3.04L-12.33 3.04L-14.09 0.26L-15.78 0.26L-15.78 3.04L-16.50 3.04ZM-14.18-2.63L-15.78-2.63L-15.78-0.37L-14.17-0.37Q-13.47-0.37-13.05-0.66Q-12.62-0.96-12.62-1.51L-12.62-1.51Q-12.62-2.63-14.18-2.63L-14.18-2.63Z"/><path fill="#3E606F" opacity="1" d=""/><path fill="#3E606F" opacity="1" d="M-3.22 3.04L-3.22-3.25L-2.50-3.25L-2.50 3.04L-3.22 3.04Z"/><path fill="#3E606F" opacity="1" d="M5.07 3.04L0.99 3.04L0.99-3.25L4.93-3.25L4.93-2.63L1.71-2.63L1.71-0.55L4.61-0.55L4.61 0.07L1.71 0.07L1.71 2.41L5.07 2.41L5.07 3.04Z"/><path fill="#3E606F" opacity="1" d="M10.06-2.63L8.12-2.63L8.12-3.25L12.72-3.25L12.72-2.63L10.78-2.63L10.78 3.04L10.06 3.04L10.06-2.63Z"/><path fill="#3E606F" opacity="1" d="M16.69-3.25L16.69 2.41L19.73 2.41L19.73 3.04L15.96 3.04L15.96-3.25L16.69-3.25Z"/><path fill="#3E606F" opacity="1" d="M27.02-2.86L27.02-2.86L26.71-2.29Q25.96-2.77 25.05-2.77L25.05-2.77Q24.37-2.77 24.04-2.47Q23.71-2.17 23.71-1.76L23.71-1.76Q23.71-1.36 23.97-1.11Q24.24-0.86 24.82-0.74L24.82-0.74L25.74-0.55Q27.40-0.20 27.40 1.31L27.40 1.31Q27.40 2.10 26.78 2.63Q26.15 3.17 24.99 3.17L24.99 3.17Q24.32 3.17 23.84 3.05Q23.36 2.93 22.82 2.65L22.82 2.65L23.07 2.00Q24.00 2.53 24.97 2.53L24.97 2.53Q25.86 2.53 26.27 2.19Q26.68 1.86 26.68 1.32L26.68 1.32Q26.68 0.79 26.39 0.50Q26.10 0.21 25.42 0.07L25.42 0.07L24.40-0.14Q23.78-0.27 23.40-0.68Q23.03-1.08 23.03-1.72L23.03-1.72Q23.03-2.46 23.56-2.92Q24.10-3.38 25.05-3.38L25.05-3.38Q26.19-3.38 27.02-2.86Z"/><path fill="#3E606F" opacity="1" d=""/><path fill="#3E606F" opacity="1" d="M39.86 3.04L35.77 3.04L35.77-3.25L39.71-3.25L39.71-2.63L36.50-2.63L36.50-0.55L39.39-0.55L39.39 0.07L36.50 0.07L36.50 2.41L39.86 2.41L39.86 3.04Z"/><path fill="#3E606F" opacity="1" d="M45.12-0.30L42.94-3.25L43.82-3.25L45.66-0.65L47.51-3.25L48.37-3.25L46.20-0.29L48.66 3.04L47.76 3.04L45.64 0.10L43.55 3.04L42.71 3.04L45.12-0.30Z"/><path fill="#3E606F" opacity="1" d="M51.41 3.04L54.13-3.25L54.99-3.25L57.70 3.04L56.93 3.04L56.03 0.92L53.04 0.92L52.16 3.04L51.41 3.04ZM54.61-2.51L54.47-2.51L53.29 0.32L55.78 0.32L54.61-2.51Z"/><path fill="#3E606F" opacity="1" d="M60.79 3.04L60.79-3.25L61.80-3.25L63.84-0.23L65.89-3.25L66.89-3.25L66.89 3.04L66.17 3.04L66.17-0.53L66.19-2.46L66.11-2.46L63.95 0.70L63.69 0.70L61.57-2.46L61.49-2.46L61.50-0.53L61.50 3.04L60.79 3.04Z"/><path fill="#3E606F" opacity="1" d=""/><path fill="#3E606F" opacity="1" d="M75.46 3.04L75.46-3.25L77.59-3.25Q78.66-3.25 79.35-2.73Q80.03-2.22 80.03-1.31L80.03-1.31Q80.03-0.39 79.36 0.14Q78.68 0.66 77.59 0.66L77.59 0.66L76.18 0.66L76.18 3.04L75.46 3.04ZM77.44-2.63L76.18-2.63L76.18 0.03L77.44 0.03Q79.31 0.03 79.31-1.31L79.31-1.31Q79.31-2.63 77.44-2.63L77.44-2.63Z"/><path fill="#3E606F" opacity="1" d="M83.28 3.04L83.28-3.25L85.74-3.25Q86.69-3.25 87.29-2.78Q87.88-2.31 87.88-1.51L87.88-1.51Q87.88-0.96 87.50-0.50Q87.12-0.05 86.42 0.14L86.42 0.14L88.33 3.04L87.45 3.04L85.69 0.26L84.00 0.26L84.00 3.04L83.28 3.04ZM85.60-2.63L84.00-2.63L84.00-0.37L85.61-0.37Q86.31-0.37 86.73-0.66Q87.16-0.96 87.16-1.51L87.16-1.51Q87.16-2.63 85.60-2.63L85.60-2.63Z"/><path fill="#3E606F" opacity="1" d="M91.09 3.04L93.81-3.25L94.66-3.25L97.37 3.04L96.60 3.04L95.70 0.92L92.71 0.92L91.83 3.04L91.09 3.04ZM94.28-2.51L94.15-2.51L92.97 0.32L95.45 0.32L94.28-2.51Z"/><path fill="#3E606F" opacity="1" d="M105.47-2.74L105.47-2.74L105.17-2.16Q104.28-2.76 103.31-2.76L103.31-2.76Q102.15-2.76 101.41-2.01Q100.66-1.27 100.66-0.11L100.66-0.11Q100.66 1.11 101.40 1.81Q102.14 2.50 103.30 2.50L103.30 2.50Q103.91 2.50 104.34 2.38Q104.77 2.26 105.27 1.94L105.27 1.94L105.48 2.58Q104.57 3.17 103.20 3.17L103.20 3.17Q102.56 3.17 101.98 2.97Q101.41 2.77 100.94 2.38Q100.48 1.99 100.20 1.34Q99.93 0.70 99.93-0.11L99.93-0.11Q99.93-1.55 100.92-2.46Q101.90-3.38 103.31-3.38L103.31-3.38Q104.58-3.38 105.47-2.74Z"/><path fill="#3E606F" opacity="1" d="M110.37-2.63L108.43-2.63L108.43-3.25L113.03-3.25L113.03-2.63L111.09-2.63L111.09 3.04L110.37 3.04L110.37-2.63Z"/><path fill="#3E606F" opacity="1" d="M116.27 3.04L116.27-3.25L117.00-3.25L117.00 3.04L116.27 3.04Z"/><path fill="#3E606F" opacity="1" d="M125.78-2.74L125.78-2.74L125.48-2.16Q124.59-2.76 123.62-2.76L123.62-2.76Q122.46-2.76 121.71-2.01Q120.97-1.27 120.97-0.11L120.97-0.11Q120.97 1.11 121.71 1.81Q122.45 2.50 123.61 2.50L123.61 2.50Q124.22 2.50 124.65 2.38Q125.08 2.26 125.57 1.94L125.57 1.94L125.79 2.58Q124.88 3.17 123.50 3.17L123.50 3.17Q122.86 3.17 122.29 2.97Q121.71 2.77 121.25 2.38Q120.78 1.99 120.51 1.34Q120.24 0.70 120.24-0.11L120.24-0.11Q120.24-1.55 121.22-2.46Q122.20-3.38 123.62-3.38L123.62-3.38Q124.89-3.38 125.78-2.74Z"/><path fill="#3E606F" opacity="1" d="M133.06 3.04L128.98 3.04L128.98-3.25L132.92-3.25L132.92-2.63L129.71-2.63L129.71-0.55L132.60-0.55L132.60 0.07L129.71 0.07L129.71 2.41L133.06 2.41L133.06 3.04Z"/></g><g transform="matrix(1 0 0 1 249.49999219731416 337.45049679103874)" style=""><path fill="#3E606F" opacity="1" d="M-175.12 18.75L-175.12-20.05L-161.63-20.05Q-156.02-20.05-152.49-17.60Q-148.97-15.15-148.97-10.26L-148.97-10.26Q-148.97-7.99-150.02-5.84Q-151.06-3.69-152.97-2.50L-152.97-2.50L-152.97-2.26Q-149.75-1.07-147.99 1.41Q-146.23 3.89-146.23 7.17L-146.23 7.17Q-146.23 12.31-149.90 15.53Q-153.57 18.75-159.72 18.75L-159.72 18.75L-175.12 18.75ZM-159.72 0.01L-170.70 0.01L-170.70 14.93L-160.26 14.93Q-155.84 14.93-153.24 13.05Q-150.64 11.17-150.64 7.41L-150.64 7.41Q-150.64 0.01-159.72 0.01L-159.72 0.01ZM-161.15-16.41L-170.70-16.41L-170.70-3.57L-160.37-3.57Q-156.97-3.57-155.18-5.33Q-153.39-7.10-153.39-10.08L-153.39-10.08Q-153.39-13.12-155.45-14.77Q-157.51-16.41-161.15-16.41L-161.15-16.41Z"/><path fill="#3E606F" opacity="1" d="M-133.75 18.75L-116.98-20.05L-111.72-20.05L-95.01 18.75L-99.72 18.75L-105.27 5.68L-123.72 5.68L-129.15 18.75L-133.75 18.75ZM-114.05-15.45L-114.89-15.45L-122.17 1.98L-106.83 1.98L-114.05-15.45Z"/><path fill="#3E606F" opacity="1" d="M-80.14 18.75L-80.14-20.05L-75.37-20.05L-48.50 13.44L-48.74 1.56L-48.74-20.05L-44.50-20.05L-44.50 18.75L-49.46 18.75L-76.32-14.98L-75.90-1.25L-75.90 18.75L-80.14 18.75Z"/><path fill="#3E606F" opacity="1" d="M-27.25 18.75L-27.25-20.05L-13.10-20.05Q-3.07-20.05 2.39-15.04Q7.85-10.02 7.85-0.89L7.85-0.89Q7.85 8.49 1.85 13.62Q-4.15 18.75-14.36 18.75L-14.36 18.75L-27.25 18.75ZM-13.10-16.23L-22.77-16.23L-22.77 14.87L-14.36 14.87Q-6.36 14.87-1.52 10.99Q3.31 7.11 3.31-0.89L3.31-0.89Q3.31-16.23-13.10-16.23L-13.10-16.23Z"/><path fill="#3E606F" opacity="1" d="M23.61 18.75L23.61-20.05L28.39-20.05L55.25 13.44L55.01 1.56L55.01-20.05L59.25-20.05L59.25 18.75L54.29 18.75L27.43-14.98L27.85-1.25L27.85 18.75L23.61 18.75Z"/><path fill="#3E606F" opacity="1" d="M76.50 18.75L76.50-20.05L80.98-20.05L80.98 18.75L76.50 18.75Z"/><path fill="#3E606F" opacity="1" d="M98.23 18.75L98.23-20.05L103.01-20.05L129.87 13.44L129.63 1.56L129.63-20.05L133.87-20.05L133.87 18.75L128.91 18.75L102.05-14.98L102.47-1.25L102.47 18.75L98.23 18.75Z"/><path fill="#3E606F" opacity="1" d="M176.31 18.75L151.12 18.75L151.12-20.05L175.42-20.05L175.42-16.23L155.60-16.23L155.60-3.39L173.45-3.39L173.45 0.43L155.60 0.43L155.60 14.87L176.31 14.87L176.31 18.75Z"/></g><g transform="matrix(1.5576344535505071 0 0 1.5576344535505071 251 209.96876708071292)">
<circle style="stroke: none; stroke-width: 0; stroke-dasharray: none; stroke-linecap: butt; stroke-dashoffset: 0; stroke-linejoin: miter; stroke-miterlimit: 4; fill: rgb(238,243,245); fill-rule: evenodd; opacity: 1;" cx="0" cy="0" r="47.0059"/>
</g>
<g transform="matrix(10.608746734701047 0 0 10.608746734701047 251 209.96876708071292)">
<path style="stroke: none; stroke-width: 0; stroke-dasharray: none; stroke-linecap: round; stroke-dashoffset: 0; stroke-linejoin: round; stroke-miterlimit: 4; fill: rgb(62,96,111); fill-rule: nonzero; opacity: 1;" transform=" translate(-5.291670173962666, -4.762503460492988)" d="m 5.2915999 0.26451604 c -2.480986 -0.000004 -4.49792499 2.01693096 -4.49791699 4.49791696 c 0 1.192813 0.47430599 2.337241 1.31774899 3.180684 c 0.843447 0.843447 1.987355 1.317232 3.180168 1.317232 c 0.929114 -0.000696 1.833759 -0.289473 2.590539 -0.823722 l 1.52032 0.79375 A 0.26460836 0.26460836 0 0 0 9.7595439 8.873293 L 8.9657939 7.352972 C 9.5000549 6.596188 9.7888189 5.691555 9.7895159 4.762433 C 9.7895199 3.569616 9.3152179 2.425712 8.4717669 1.582265 C 7.6283199 0.73881404 6.4844159 0.26451204 5.2915999 0.26451604 Z m 0 0.529167 c 1.052674 0 2.062192 0.41784896 2.806546 1.16220296 c 0.744334 0.744333 1.162187 1.753901 1.162203 2.806547 c -0.000655 0.869951 -0.287225 1.715348 -0.815454 2.406571 a 0.26460836 0.26460836 0 0 0 -0.02429 0.283187 l 0.480074 0.919324 l -0.919323 -0.480074 a 0.26460836 0.26460836 0 0 0 -0.283187 0.02429 c -0.691209 0.528216 -1.536639 0.814769 -2.406569 0.815454 c -1.052671 0 -2.061677 -0.417854 -2.806031 -1.162203 c -0.744349 -0.74435 -1.162719 -1.753873 -1.162719 -2.806547 c -0.000008 -2.195005 1.773745 -3.96874996 3.96875 -3.96874996 z m 0 0.62838496 c -0.949095 0 -1.807139 0.398259 -2.415873 1.036113 c -0.000336 0.000351 -0.000699 0.000681 -0.001 0.001 a 0.2645819 0.2645819 0 0 0 -0.001 0.000516 a 0.2645819 0.2645819 0 0 0 -0.0098 0.01137 c -0.565318 0.598604 -0.912606 1.405078 -0.912606 2.291333 c 0 0.887447 0.348008 1.695069 0.914673 2.293917 a 0.2645819 0.2645819 0 0 0 0.0077 0.0088 a 0.2645819 0.2645819 0 0 0 0.001 0.000517 a 0.2645819 0.2645819 0 0 0 0.001 0.001 c 0.608734 0.637855 1.466778 1.036112 2.415873 1.036112 c 0.949092 0 1.807138 -0.39826 2.415872 -1.036112 c 0.000337 -0.000353 0.000697 -0.00068 0.001 -0.001 a 0.2645819 0.2645819 0 0 0 0.001 -0.000517 a 0.2645819 0.2645819 0 0 0 0.02635 -0.02894 c 0.555574 -0.596776 0.89607 -1.396153 0.89607 -2.273763 c 0 -0.874722 -0.338053 -1.671937 -0.890385 -2.268078 a 0.2645819 0.2645819 0 0 0 -0.03152 -0.03566 a 0.2645819 0.2645819 0 0 0 -0.0088 -0.0067 C 7.0928799 1.817835 6.2375089 1.422065 5.2915699 1.422065 Z m 0 0.529167 c 0.04528 0 0.114809 0.02608 0.212907 0.145211 c 0.0981 0.119126 0.205015 0.319696 0.295072 0.578259 c 0.06078 0.174499 0.114023 0.37546 0.158646 0.596346 c -0.216385 0.05283 -0.439949 0.0801 -0.666625 0.0801 c -0.226641 0 -0.450269 -0.02729 -0.666626 -0.0801 c 0.04463 -0.220902 0.09838 -0.421837 0.159163 -0.596346 c 0.09006 -0.258563 0.196454 -0.459133 0.294556 -0.578259 c 0.0981 -0.11913 0.167628 -0.145211 0.212907 -0.145211 z m -0.82579 0.122473 c -0.06738 0.128236 -0.127088 0.270956 -0.181384 0.426847 c -0.06312 0.181238 -0.118204 0.380581 -0.164331 0.594796 c -0.247453 -0.113449 -0.478384 -0.262895 -0.685229 -0.444934 c 0.295213 -0.259608 0.644999 -0.45879 1.030944 -0.576709 z m 1.651579 0.000517 c 0.385961 0.117934 0.736246 0.316556 1.031461 0.576192 c -0.206905 0.182108 -0.438203 0.33146 -0.685746 0.444934 C 6.4169739 2.881136 6.3624149 2.681793 6.2992899 2.500555 C 6.2450399 2.344797 6.1846929 2.202376 6.1173889 2.074225 Z m 1.39423 0.961181 c 0.319865 0.410956 0.527787 0.91343 0.578776 1.462443 h -1.467094 c -0.0086 -0.302093 -0.0319 -0.592408 -0.06821 -0.866097 c 0.348235 -0.142304 0.671995 -0.343202 0.956531 -0.596346 z m -4.440039 0.000517 c 0.284457 0.253018 0.60843 0.453572 0.956531 0.595829 c -0.03631 0.273689 -0.05963 0.564004 -0.06821 0.866097 h -1.467094 c 0.05097 -0.548779 0.259137 -1.051067 0.578776 -1.461926 z m 1.470195 0.759127 c 0.243911 0.0562 0.49533 0.08527 0.749825 0.08527 c 0.254433 0 0.505972 -0.02909 0.749824 -0.08527 c 0.02672 0.222803 0.04511 0.458396 0.05271 0.702799 h -1.604553 c 0.0076 -0.244403 0.02547 -0.479996 0.05219 -0.702799 z m -2.048971 1.231966 h 1.467094 c 0.0086 0.302095 0.0319 0.592409 0.06821 0.866097 c -0.348101 0.142263 -0.672074 0.34281 -0.956531 0.595829 C 2.7519379 6.078088 2.5437689 5.575795 2.4928009 5.027016 Z m 1.996777 0 h 1.604553 c -0.0076 0.244403 -0.02599 0.479999 -0.05271 0.7028 c -0.243916 -0.05621 -0.495322 -0.08526 -0.749824 -0.08527 c -0.2545 0 -0.50591 0.02906 -0.749825 0.08527 c -0.02673 -0.222801 -0.04459 -0.458397 -0.05219 -0.7028 z m 2.13372 0 h 1.467094 C 8.0394149 5.575918 7.8318919 6.078554 7.5121359 6.489459 C 7.2275489 6.236208 6.9034099 6.03547 6.5550879 5.893113 c 0.03631 -0.273688 0.05963 -0.564002 0.06821 -0.866097 z m -1.331701 1.1467 c 0.22658 0 0.450322 0.02731 0.666625 0.0801 c -0.04462 0.220882 -0.09787 0.421847 -0.158646 0.596346 c -0.09006 0.258563 -0.196975 0.459129 -0.295072 0.578259 c -0.0981 0.119126 -0.167629 0.145211 -0.212907 0.145211 c -0.04528 0 -0.11481 -0.02608 -0.212907 -0.145211 c -0.0981 -0.11913 -0.204499 -0.319696 -0.294556 -0.578259 c -0.06078 -0.17451 -0.114535 -0.375448 -0.159163 -0.596346 c 0.216357 -0.05281 0.439985 -0.0801 0.666626 -0.0801 z m -1.171505 0.255798 c 0.04613 0.214216 0.101206 0.413557 0.164331 0.594796 c 0.0543 0.155889 0.114004 0.298617 0.181384 0.426847 C 4.0798649 7.333241 3.7300789 7.134053 3.4348659 6.874449 C 3.6417099 6.692408 3.8726419 6.542964 4.1200949 6.429514 Z m 2.343009 0 c 0.247472 0.113455 0.47889 0.262882 0.685746 0.444935 c -0.295215 0.259632 -0.6455 0.45826 -1.031461 0.576192 c 0.0673 -0.128146 0.127651 -0.270575 0.181901 -0.426331 c 0.06312 -0.181239 0.117684 -0.38058 0.163814 -0.594796 z" stroke-linecap="round"/>
</g>
</svg>